{"glyphs":{":":{"x_min":0,"x_max":327,"ha":327,"o":""},"$":{"x_min":0,"x_max":546,"ha":546,"o":"m 219 -8 q 202 -7 187 -6 q 158 -3 134 4 q 109 10 86 20 q 63 31 36 46 q 46 87 49 134 q 52 182 52 223 q 75 231 103 233 q 131 235 152 235 q 153 198 158 168 q 162 138 173 117 q 184 96 204 84 q 211 81 219 78 l 219 249 q 208 255 196 261 q 157 280 122 309 q 88 338 66 382 q 43 425 43 492 q 43 540 62 576 q 80 612 112 636 q 143 660 185 672 q 207 679 231 682 l 231 753 q 253 753 276 750 q 298 746 318 737 q 318 716 317 683 q 351 681 380 674 q 426 663 452 648 q 452 603 454 560 q 457 517 461 491 q 440 479 414 475 q 388 471 363 471 q 357 512 348 538 q 339 564 327 579 q 322 585 316 590 l 316 491 l 316 430 q 333 423 351 415 q 394 397 430 370 q 467 343 492 303 q 516 263 516 203 q 516 155 496 116 q 477 77 442 49 q 407 21 359 6 q 334 -2 305 -6 q 306 -50 306 -83 q 287 -83 260 -79 q 232 -75 219 -67 z m 210 491 q 220 483 231 475 l 231 600 q 218 597 208 590 q 186 576 186 544 q 186 512 210 491 z m 304 81 q 316 86 325 93 q 350 114 350 141 q 350 171 327 190 q 317 199 304 207 l 304 191 z"},"?":{"x_min":0,"x_max":537,"ha":537,"o":"m 315 717 q 412 717 457 684 q 502 652 502 595 q 502 559 490 534 q 478 508 460 488 q 442 469 420 452 q 399 436 381 418 q 363 400 351 378 q 339 356 339 325 q 339 302 342 284 q 346 265 354 242 q 337 233 312 228 q 286 223 264 223 q 239 238 222 274 q 204 311 204 351 q 204 397 221 424 q 238 452 258 473 q 278 494 295 516 q 312 538 312 574 q 312 610 298 625 q 285 640 267 640 q 257 640 248 634 q 240 629 233 614 q 226 599 220 573 q 214 547 210 506 q 177 506 154 512 q 130 517 108 529 q 111 565 112 602 q 112 640 108 672 q 143 689 194 703 q 246 717 315 717 z m 309 192 q 331 192 350 184 q 368 176 380 163 q 393 150 400 133 q 407 116 407 98 q 407 55 380 24 q 354 -8 303 -8 q 255 -8 228 19 q 200 46 200 93 q 200 140 231 166 q 262 192 309 192 z"},"<":{"x_min":0,"x_max":498,"ha":498,"o":"m 437 71 q 440 57 440 42 q 441 27 440 12 q 438 -3 434 -16 q 430 -29 424 -37 q 321 41 229 108 q 137 174 61 224 q 59 245 64 266 q 68 287 82 306 l 382 547 q 432 538 469 500 l 168 262 z"},"'":{"x_min":0,"x_max":253,"ha":253,"o":"m 161 717 q 193 709 193 669 q 193 664 192 660 q 192 656 191 651 q 182 603 176 543 q 171 483 166 411 q 146 411 126 414 q 106 418 89 426 q 87 493 79 562 q 71 630 60 687 q 92 690 118 698 q 145 707 161 717 z"},"=":{"x_min":0,"x_max":540,"ha":540,"o":"m 495 206 q 495 183 492 160 q 489 138 481 118 q 451 118 427 118 q 403 119 380 119 l 213 119 q 186 119 159 118 q 132 118 104 118 q 75 117 41 117 q 41 140 44 164 q 47 187 55 206 z m 496 391 q 496 366 494 346 q 492 325 482 303 q 452 303 428 304 q 405 304 382 304 l 215 304 q 188 304 161 304 q 134 303 106 302 q 78 302 44 302 q 44 330 47 350 q 50 371 58 391 z"},"a":{"x_min":0,"x_max":585,"ha":585,"o":"m 518 190 q 518 164 521 148 q 524 131 530 122 q 536 113 544 110 q 553 107 565 107 q 565 84 563 64 q 561 43 553 23 q 499 20 454 12 q 409 4 378 -9 q 358 -2 348 10 q 337 21 337 41 q 337 53 340 66 q 342 76 344 86 q 338 70 326 56 q 312 38 303 30 q 280 13 251 3 q 222 -7 185 -7 q 25 -7 25 113 q 25 164 58 196 q 91 228 138 247 q 186 266 238 275 q 290 284 328 289 q 328 323 323 343 q 318 363 305 377 q 296 388 282 393 q 268 398 254 398 q 220 398 204 368 q 187 339 182 289 q 147 289 122 291 q 97 293 73 302 q 75 331 74 362 q 74 393 66 431 q 108 447 162 457 q 217 467 281 467 q 361 467 404 455 q 448 443 472 417 q 481 407 490 394 q 498 381 504 362 q 511 344 514 318 q 518 292 518 256 z m 328 225 q 262 212 236 192 q 210 173 210 144 q 210 120 221 111 q 232 102 248 102 q 262 102 276 109 q 290 116 302 130 q 313 143 320 162 q 328 182 328 208 z"},"L":{"x_min":0,"x_max":641,"ha":641,"o":"m 399 75 q 450 75 480 107 q 509 139 529 211 q 562 208 590 198 q 618 189 631 177 q 620 142 612 94 q 604 47 600 -2 q 578 -2 546 -2 q 514 -1 478 0 q 443 0 406 0 l 339 0 q 313 0 268 0 q 223 -1 176 -2 q 128 -2 88 -2 q 47 -3 30 -3 q 30 19 32 40 q 34 61 38 75 q 58 76 71 81 q 84 86 92 98 q 99 110 102 131 q 104 152 104 187 l 104 491 q 104 525 102 545 q 99 565 92 576 q 84 588 71 593 q 58 598 37 601 q 33 616 32 639 q 30 662 30 679 q 54 678 74 678 q 93 677 113 676 q 133 676 154 676 l 246 676 q 270 676 294 676 q 318 677 340 678 q 363 678 378 679 q 378 659 377 638 q 376 617 369 601 q 348 599 336 594 q 323 589 316 578 q 309 566 306 546 q 304 525 304 491 l 304 192 q 304 157 308 134 q 311 112 320 99 q 329 86 344 80 q 359 75 382 75 z"},"3":{"x_min":0,"x_max":514,"ha":514,"o":"m 255 500 q 280 500 308 500 q 336 501 362 502 q 389 502 412 502 q 434 503 448 504 q 459 487 466 466 q 472 445 470 422 q 432 374 388 316 q 345 259 308 208 q 484 199 484 48 q 484 1 463 -40 q 442 -80 402 -109 q 362 -138 303 -154 q 244 -171 169 -171 q 114 -171 75 -160 q 36 -149 15 -132 q 17 -113 26 -94 q 35 -76 50 -62 q 75 -78 100 -84 q 124 -89 153 -89 q 175 -89 200 -82 q 224 -76 244 -62 q 265 -49 278 -27 q 292 -5 292 25 q 292 60 274 82 q 256 103 219 103 q 205 103 199 102 q 193 102 184 99 q 171 113 164 133 q 158 153 160 173 q 199 220 232 260 q 264 301 292 340 l 219 340 q 198 340 184 338 q 169 335 158 326 q 148 318 140 303 q 132 288 123 263 q 100 263 76 267 q 53 271 37 283 q 41 311 44 337 q 46 363 48 389 q 49 415 49 443 l 49 504 q 66 503 90 502 q 115 502 142 502 q 170 501 200 500 q 229 500 255 500 z"},";":{"x_min":0,"x_max":327,"ha":327,"o":""},"J":{"x_min":0,"x_max":408,"ha":408,"o":"m 304 135 q 304 66 294 8 q 284 -49 255 -96 q 226 -143 174 -180 q 122 -218 37 -249 q 19 -235 10 -216 q 2 -197 0 -175 q 27 -157 47 -137 q 67 -117 80 -90 q 92 -64 98 -28 q 104 9 104 62 l 104 488 q 104 523 102 544 q 99 566 92 578 q 85 589 72 594 q 60 599 39 601 q 34 616 32 638 q 30 661 30 679 q 46 678 68 678 q 89 677 112 676 q 136 676 159 676 l 248 676 q 271 676 294 676 q 318 677 340 678 q 361 678 378 679 q 378 656 376 637 q 374 618 369 601 q 346 599 333 593 q 320 587 314 574 q 307 561 306 540 q 304 519 304 488 z"},"V":{"x_min":0,"x_max":707,"ha":707,"o":"m 313 503 q 331 462 348 425 q 364 388 380 350 q 395 312 409 270 q 417 248 424 224 q 434 247 442 268 q 458 310 472 350 q 486 390 500 432 q 514 474 530 525 q 539 554 532 575 q 524 596 492 601 q 488 614 486 632 q 484 650 484 679 q 493 678 507 678 q 521 677 537 676 q 553 676 569 676 l 598 676 q 623 676 652 676 q 682 677 697 679 q 697 656 694 636 q 691 617 687 601 q 674 598 664 592 q 653 587 644 576 q 635 564 626 546 q 617 527 607 500 q 562 376 516 254 q 469 132 418 0 q 401 -7 375 -8 q 349 -9 326 -9 q 272 120 218 243 q 164 366 107 482 q 90 517 78 539 q 67 561 57 574 q 47 587 38 593 q 29 599 18 601 q 10 628 10 679 q 23 678 46 678 q 68 677 92 676 q 117 676 139 676 l 204 676 q 223 676 246 676 q 269 677 294 678 q 319 678 343 679 q 343 650 341 632 q 339 613 335 601 q 316 598 306 592 q 296 586 294 575 q 292 564 297 546 q 302 529 313 503 z"},"\"":{"x_min":0,"x_max":412,"ha":412,"o":"m 164 717 q 178 714 186 700 q 193 686 193 675 q 193 669 192 662 q 192 654 191 650 q 183 603 176 544 q 169 486 161 412 q 153 412 142 413 q 131 414 120 416 q 110 417 102 420 q 93 422 89 425 q 86 492 80 558 q 74 625 60 688 q 91 692 114 698 q 138 704 164 717 z m 321 717 q 336 714 344 701 q 352 688 352 671 l 352 664 q 352 660 350 649 q 346 625 343 600 q 340 576 338 548 q 335 519 332 486 q 330 452 326 411 q 300 411 284 413 q 267 415 251 422 q 246 490 242 558 q 237 625 226 688 q 252 692 276 699 q 300 706 321 717 z"},"7":{"x_min":0,"x_max":472,"ha":472,"o":"m 286 500 q 318 500 346 500 q 375 501 396 502 q 418 502 429 502 q 441 488 446 464 q 452 441 452 421 q 432 392 413 362 q 394 332 378 304 q 361 276 350 252 q 338 229 333 213 q 325 188 318 164 q 312 140 307 106 q 302 72 300 22 q 297 -29 297 -107 q 257 -116 215 -134 q 173 -153 141 -176 q 127 -174 117 -160 q 107 -145 107 -107 q 107 -89 109 -68 q 111 -46 116 -24 q 120 -1 126 21 q 132 43 141 62 q 150 83 168 116 q 186 148 210 186 q 233 223 259 264 q 285 304 311 340 l 233 340 q 206 340 188 337 q 169 334 156 326 q 144 318 136 304 q 128 289 121 266 q 89 266 68 268 q 46 270 20 283 q 24 302 28 328 q 31 353 33 382 q 35 412 36 442 q 37 473 37 502 q 61 501 113 500 q 165 500 225 500 z"},"S":{"x_min":0,"x_max":535,"ha":535,"o":"m 275 685 q 340 685 390 674 q 440 663 466 648 q 466 603 468 560 q 469 516 473 490 q 452 478 419 474 q 386 469 361 469 q 355 510 346 536 q 336 563 322 578 q 309 593 292 599 q 275 605 254 605 q 228 605 206 590 q 185 576 185 544 q 185 512 210 491 q 234 470 270 452 q 307 434 350 416 q 393 397 430 370 q 466 343 490 303 q 515 263 515 203 q 515 155 496 116 q 476 77 441 49 q 406 21 358 6 q 311 -9 254 -9 q 215 -9 184 -6 q 154 -3 128 4 q 103 10 79 20 q 55 31 28 46 q 36 88 38 132 q 41 175 41 216 q 70 224 101 226 q 132 228 161 228 q 164 181 170 151 q 175 121 186 104 q 198 87 216 80 q 234 73 263 73 q 300 73 324 92 q 349 110 349 141 q 349 171 326 190 q 304 209 270 226 q 235 242 196 261 q 156 280 122 309 q 87 338 64 382 q 42 425 42 492 q 42 540 60 576 q 79 612 110 636 q 142 660 184 672 q 227 685 275 685 z"},"}":{"x_min":0,"x_max":415,"ha":415,"o":"m 65 754 q 134 740 176 719 q 218 698 241 672 q 264 647 272 617 q 279 587 280 555 q 281 517 276 478 q 271 440 272 405 q 273 384 278 364 q 282 345 293 328 q 304 311 322 298 q 341 284 370 275 q 372 270 373 262 q 374 253 374 244 q 375 235 375 226 l 375 213 q 345 204 326 190 q 306 175 295 157 q 284 139 280 118 q 275 97 274 73 q 273 39 276 3 q 280 -33 279 -69 q 278 -103 269 -137 q 260 -171 235 -200 q 210 -229 166 -251 q 122 -273 52 -283 q 38 -264 35 -243 q 32 -222 38 -203 q 90 -188 108 -155 q 125 -122 124 -80 q 124 -58 120 -34 q 117 -10 113 14 q 109 38 106 62 q 104 86 104 109 q 104 134 110 156 q 117 178 132 196 q 148 214 175 227 q 202 240 244 246 q 202 252 175 264 q 148 276 132 293 q 117 310 111 332 q 105 354 105 378 q 105 400 108 424 q 112 447 116 471 q 120 495 124 518 q 128 542 128 564 q 129 604 112 636 q 95 668 44 685 q 44 703 48 723 q 52 743 65 754 z"},"Z":{"x_min":0,"x_max":586,"ha":586,"o":"m 68 678 q 87 677 116 676 q 146 676 179 676 l 415 676 q 445 676 473 676 q 501 677 524 678 q 533 663 538 646 q 543 630 545 608 q 507 530 472 460 q 438 391 402 324 q 366 256 328 187 q 298 133 264 75 l 300 75 q 333 75 356 80 q 379 86 396 102 q 413 117 425 144 q 437 170 448 212 q 513 207 556 183 q 552 166 547 142 q 542 119 538 94 q 534 68 531 42 q 528 17 528 -3 q 499 -2 466 -2 q 432 -1 398 0 q 364 0 331 0 l 270 0 q 210 0 153 0 q 96 -1 50 -3 q 41 10 36 28 q 30 47 30 68 q 75 147 114 216 q 152 284 188 350 q 223 417 258 484 q 287 539 317 601 l 264 601 q 241 601 224 595 q 207 589 194 573 q 180 557 170 528 q 159 500 149 456 q 117 456 90 459 q 62 462 43 470 q 56 518 62 576 q 68 633 68 678 z"},"x":{"x_min":0,"x_max":607,"ha":607,"o":"m 259 149 q 250 163 245 171 l 236 158 q 221 135 212 120 q 204 104 202 95 q 199 86 202 82 q 205 77 212 75 q 218 58 219 40 q 220 23 220 -2 q 200 0 171 0 l 67 0 q 41 0 25 -2 q 25 45 37 75 q 48 76 57 80 q 66 83 76 94 q 87 104 102 124 q 117 144 140 179 l 178 236 q 164 260 149 283 q 124 321 101 350 q 89 367 75 374 q 61 381 38 383 q 33 400 30 420 q 27 441 27 460 q 58 458 99 458 l 273 458 q 318 458 351 460 q 351 440 349 418 q 347 395 343 383 q 322 381 322 369 q 321 357 344 321 q 355 304 363 291 q 364 289 365 286 l 390 323 q 412 356 413 368 q 414 379 396 383 q 391 397 388 418 q 385 438 385 460 q 411 458 434 458 l 534 458 q 552 458 575 460 q 575 415 564 383 q 553 382 545 380 q 537 377 530 371 q 522 365 514 354 q 506 344 495 327 l 432 233 q 455 199 475 167 q 491 141 503 124 q 515 107 526 97 q 536 87 546 82 q 557 78 571 77 q 577 60 580 42 q 582 23 582 0 q 559 1 537 0 q 515 0 474 0 l 358 0 q 326 0 298 0 q 269 -1 256 -2 q 256 24 258 42 q 260 61 265 75 q 273 77 278 81 q 283 85 283 93 q 283 101 277 114 q 271 128 259 149 z"},")":{"x_min":0,"x_max":349,"ha":349,"o":"m 110 741 q 155 691 192 638 q 228 585 254 526 q 281 468 296 404 q 310 340 310 270 q 310 179 292 98 q 275 18 246 -50 q 218 -119 181 -174 q 144 -230 105 -271 q 64 -271 39 -256 q 72 -201 95 -148 q 118 -95 132 -36 q 147 23 154 92 q 160 160 160 244 q 160 324 153 390 q 146 457 132 514 q 117 572 96 622 q 74 672 45 719 q 73 741 110 741 z"},"&":{"x_min":0,"x_max":804,"ha":804,"o":"m 637 160 q 653 143 666 132 q 678 121 690 115 q 702 109 716 106 q 730 104 750 103 q 750 82 746 56 q 743 29 736 10 q 716 10 692 8 q 667 7 641 4 q 615 2 589 -2 q 563 -5 540 -9 q 516 23 492 53 q 488 49 483 45 q 459 27 432 14 q 405 2 373 -4 q 341 -10 301 -10 q 175 -10 114 42 q 53 93 53 185 q 53 274 97 326 q 139 376 214 409 q 199 435 189 456 q 175 486 170 511 q 164 536 164 561 q 164 594 176 622 q 188 651 216 672 q 245 693 292 705 q 340 717 412 717 q 473 717 518 710 q 563 704 608 688 q 600 657 598 615 q 597 573 600 527 q 549 515 486 515 q 481 578 462 609 q 444 640 399 640 q 379 640 366 625 q 353 610 353 584 q 353 565 357 546 q 361 528 372 506 q 382 483 400 456 q 419 428 447 391 q 504 316 548 260 q 550 258 551 256 q 553 260 555 263 q 570 294 577 323 q 585 357 574 372 q 562 387 524 395 q 518 413 516 428 q 514 443 514 461 q 526 460 542 460 q 558 459 574 458 q 591 458 607 458 l 636 458 q 661 458 688 458 q 715 459 740 461 q 740 444 738 428 q 737 413 732 395 q 714 390 702 384 q 690 378 682 370 q 674 361 668 349 q 663 337 657 320 q 644 285 626 245 q 617 223 603 195 q 620 177 637 160 z m 359 71 q 391 71 416 87 q 431 97 445 112 q 429 132 413 151 q 382 189 351 227 q 320 265 287 307 q 277 319 268 330 q 266 328 264 325 q 258 317 254 306 q 251 294 249 278 q 247 261 247 237 q 247 193 256 162 q 265 130 280 110 q 296 90 316 80 q 337 71 359 71 z"},"_":{"x_min":0,"x_max":638,"ha":638,"o":"m 578 -72 q 578 -90 576 -112 q 573 -135 564 -152 q 520 -152 487 -152 q 454 -151 425 -151 l 249 -151 q 222 -151 193 -152 q 164 -152 132 -152 q 100 -153 60 -153 q 60 -130 63 -110 q 66 -90 74 -72 z"},"v":{"x_min":0,"x_max":583,"ha":583,"o":"m 367 461 q 406 458 468 458 q 529 458 573 461 q 573 441 570 418 q 567 396 560 383 q 534 377 520 364 q 506 351 492 319 l 356 -9 q 327 -13 295 -9 q 263 -5 243 6 q 225 44 204 86 q 184 129 162 171 q 141 213 120 253 q 100 293 82 325 q 65 356 52 367 q 40 378 21 383 q 16 397 13 419 q 10 441 10 461 q 33 459 76 458 q 118 458 166 458 l 213 458 q 238 458 261 458 q 284 459 303 460 q 322 460 334 461 q 334 442 330 420 q 327 397 323 383 q 290 378 285 366 q 280 353 297 318 q 309 293 320 270 q 331 248 341 224 q 349 204 358 182 q 365 204 372 224 q 381 248 390 270 l 409 318 q 424 353 416 366 q 409 378 378 383 q 374 397 370 419 q 367 441 367 461 z"},"O":{"x_min":0,"x_max":761,"ha":761,"o":"m 35 341 q 35 421 60 484 q 86 548 132 592 q 177 637 240 661 q 304 685 380 685 q 458 685 522 662 q 586 638 632 595 q 677 552 702 490 q 726 429 726 354 q 726 273 702 206 q 677 140 632 92 q 587 44 523 18 q 459 -9 380 -9 q 299 -9 235 16 q 171 42 126 88 q 82 134 58 198 q 35 263 35 341 z m 240 365 q 240 305 249 251 q 258 197 276 156 q 295 116 324 92 q 352 69 392 69 q 423 69 447 88 q 471 106 488 140 q 504 175 512 224 q 521 273 521 333 q 521 390 510 440 q 500 491 480 528 q 460 566 432 588 q 403 610 367 610 q 306 610 273 546 q 240 483 240 365 z"},"(":{"x_min":0,"x_max":353,"ha":353,"o":"m 235 741 q 272 741 300 719 q 271 672 249 625 q 227 578 213 524 q 199 471 192 408 q 185 345 185 266 q 185 93 220 -38 q 254 -168 306 -256 q 280 -271 240 -271 q 201 -230 164 -175 q 127 -120 98 -54 q 70 11 52 86 q 35 160 35 240 q 35 322 50 392 q 64 462 90 523 q 117 584 154 638 q 190 691 235 741 z"},"C":{"x_min":0,"x_max":634,"ha":634,"o":"m 374 685 q 435 685 490 672 q 546 658 599 633 q 593 598 590 559 q 588 520 588 478 q 581 474 569 472 q 557 469 543 468 q 529 466 515 465 q 501 464 489 464 q 488 507 480 534 q 472 562 457 578 q 442 595 422 602 q 402 608 377 608 q 340 608 314 588 q 288 568 272 534 q 255 500 248 456 q 240 413 240 367 q 240 307 252 256 q 263 204 286 166 q 308 128 342 106 q 375 85 419 85 q 462 85 508 97 q 553 109 586 127 q 597 117 604 102 q 611 88 614 72 q 596 56 572 42 q 547 27 518 16 q 488 4 454 -2 q 420 -9 384 -9 q 303 -9 238 16 q 174 42 129 88 q 84 135 60 200 q 35 264 35 342 q 35 427 64 491 q 93 555 140 598 q 187 641 248 663 q 309 685 374 685 z"},"W":{"x_min":0,"x_max":985,"ha":985,"o":"m 10 679 q 22 678 46 678 q 69 677 94 676 q 120 676 143 676 l 211 676 q 233 676 258 676 q 283 677 308 678 q 332 678 350 679 q 350 658 348 638 q 347 619 342 601 q 319 598 306 592 q 293 585 288 572 q 284 560 288 538 q 292 517 304 484 q 324 427 345 361 q 356 326 369 285 l 505 676 q 524 681 546 682 q 569 684 589 684 q 616 619 640 561 q 663 503 686 446 q 708 389 731 330 q 742 302 753 272 l 807 458 q 818 496 820 522 q 823 547 816 564 q 810 580 795 588 q 780 597 756 601 q 749 618 748 639 q 746 660 746 679 q 756 678 771 678 q 786 677 802 676 q 819 676 835 676 l 892 676 q 907 676 922 676 q 937 677 951 678 q 965 678 975 679 q 975 659 974 640 q 973 620 966 601 q 952 596 942 588 q 931 579 922 564 q 912 548 903 522 q 894 497 883 458 l 754 0 q 746 -2 733 -4 q 720 -6 705 -7 q 690 -8 674 -8 q 659 -9 646 -9 q 623 53 602 108 q 580 164 558 218 q 536 273 513 329 q 501 359 488 390 l 353 -2 q 343 -4 329 -6 q 315 -7 300 -8 q 286 -9 272 -9 l 249 -9 q 207 126 168 249 q 128 372 96 467 q 81 511 72 536 q 62 562 54 576 q 46 589 38 593 q 29 597 17 598 q 12 616 11 636 q 10 657 10 679 z"},"A":{"x_min":0,"x_max":717,"ha":717,"o":"m 312 676 q 332 681 348 682 q 365 682 388 682 l 610 195 q 628 156 640 133 q 652 110 662 98 q 671 85 680 80 q 688 76 699 75 q 703 62 705 42 q 707 21 707 -3 q 692 -2 670 -2 q 648 -1 626 0 q 603 0 582 0 l 514 0 q 491 0 464 0 q 438 -1 413 -2 q 388 -2 374 -3 q 374 25 376 42 q 378 60 382 75 q 415 83 422 100 q 428 117 413 151 l 406 166 q 348 165 288 163 q 234 161 178 156 l 177 152 q 172 141 172 128 q 171 116 176 105 q 180 94 190 86 q 199 78 215 75 q 219 59 221 40 q 223 21 223 -3 q 214 -2 200 -2 q 185 -1 168 0 q 152 0 135 0 l 106 0 q 81 0 53 0 q 25 -1 10 -3 q 10 20 12 38 q 14 56 20 75 q 32 77 42 82 q 51 88 60 99 q 69 110 78 128 q 88 147 100 176 z m 207 231 l 377 231 l 340 316 q 313 376 297 429 q 293 441 289 454 l 281 428 q 265 376 241 316 z"},"f":{"x_min":0,"x_max":440,"ha":440,"o":"m 102 448 l 102 477 q 102 538 120 583 q 139 628 172 658 q 206 688 252 702 q 298 717 353 717 q 374 717 396 714 q 418 712 438 708 q 459 703 476 697 q 493 691 504 684 q 501 669 500 651 q 498 633 498 614 q 497 595 498 578 q 498 560 499 546 q 490 542 475 539 q 460 536 444 534 q 427 533 410 532 q 394 532 380 533 q 380 584 366 612 q 353 641 332 641 q 321 641 314 636 q 306 631 301 617 q 296 603 294 578 q 292 552 292 511 l 292 448 l 409 448 q 409 424 407 401 q 405 378 399 365 q 370 365 346 362 q 321 359 292 349 l 292 197 q 292 165 297 142 q 302 120 315 106 q 328 92 348 84 q 369 77 401 75 q 407 58 408 37 q 410 16 410 -3 q 396 -2 375 -2 q 354 -1 330 0 q 305 0 279 0 l 174 0 q 146 0 119 0 q 92 -1 68 -2 q 45 -2 28 -3 q 28 24 30 42 q 31 61 35 75 q 55 76 68 81 q 81 86 88 98 q 96 110 99 131 q 102 152 102 187 l 102 357 q 79 364 60 366 q 41 369 27 369 q 27 390 30 412 q 33 434 41 448 z"},"Q":{"x_min":0,"x_max":755,"ha":755,"o":"m 380 -9 q 299 -9 235 16 q 171 42 126 88 q 82 134 58 198 q 35 263 35 341 q 35 421 60 484 q 86 548 132 592 q 177 637 240 661 q 304 685 380 685 q 458 685 522 662 q 586 638 632 595 q 677 552 702 490 q 726 429 726 354 q 726 273 702 206 q 677 140 632 92 q 587 44 524 18 q 538 14 549 8 q 575 -4 596 -18 q 617 -31 636 -44 q 654 -57 675 -67 q 696 -77 722 -82 q 749 -88 785 -86 q 786 -107 783 -130 q 780 -153 775 -170 q 726 -175 678 -188 q 630 -200 590 -219 q 564 -208 546 -189 q 529 -170 516 -148 q 502 -126 490 -104 q 477 -81 462 -61 q 448 -41 428 -27 q 409 -13 380 -9 z m 240 365 q 240 305 249 251 q 258 197 276 156 q 295 116 324 92 q 352 69 392 69 q 423 69 447 88 q 471 106 488 140 q 504 175 512 224 q 521 273 521 333 q 521 390 510 440 q 500 491 480 528 q 460 566 432 588 q 403 610 367 610 q 306 610 273 546 q 240 483 240 365 z"},"w":{"x_min":0,"x_max":797,"ha":797,"o":"m 502 455 q 542 370 577 281 q 594 238 609 196 l 637 312 q 645 347 638 362 q 630 378 602 384 q 596 402 594 421 q 591 440 591 461 q 611 459 634 458 q 656 458 687 458 q 718 458 742 458 q 765 459 787 461 q 787 444 784 421 q 781 398 775 384 q 752 379 739 366 q 726 352 716 319 l 620 -9 q 610 -9 594 -8 q 578 -8 561 -8 q 544 -7 529 -5 q 514 -3 506 0 q 485 42 469 76 q 453 110 440 140 q 427 171 417 201 q 415 209 412 218 l 311 -9 q 301 -9 285 -8 q 269 -8 252 -8 q 235 -7 220 -5 q 205 -3 197 0 q 183 40 168 86 q 152 132 136 176 q 120 221 106 260 q 92 299 82 325 q 71 354 57 368 q 43 381 22 383 q 17 397 14 418 q 10 438 10 461 q 86 458 156 458 q 197 458 242 458 q 287 459 325 461 q 325 438 322 418 q 318 398 313 384 q 299 383 292 380 q 284 378 282 370 q 280 363 283 349 q 286 335 293 312 q 304 273 315 225 q 318 216 320 205 l 420 464 q 440 464 462 462 q 485 461 502 455 z"},"-":{"x_min":0,"x_max":419,"ha":419,"o":"m 359 326 q 359 307 356 281 q 354 255 346 229 q 283 229 210 228 q 137 227 60 221 q 60 242 64 272 q 68 301 77 326 z"},"E":{"x_min":0,"x_max":646,"ha":646,"o":"m 571 679 q 571 660 572 636 q 574 613 577 588 q 580 564 584 542 q 587 519 592 501 q 572 493 549 488 q 526 483 491 483 q 486 510 478 532 q 470 554 454 569 q 439 584 414 592 q 390 601 353 601 l 304 601 l 304 374 q 329 374 344 378 q 360 382 369 390 q 378 398 382 412 q 386 425 386 445 q 403 452 427 454 q 451 457 474 457 q 472 433 471 406 q 470 378 470 340 q 470 298 471 270 q 472 243 474 221 q 446 221 426 223 q 405 225 388 231 q 384 272 366 286 q 349 299 304 299 l 304 192 q 304 157 308 134 q 311 112 320 99 q 329 86 344 80 q 359 75 382 75 l 399 75 q 450 75 480 107 q 509 139 529 211 q 562 208 590 198 q 618 189 631 177 q 620 142 612 94 q 604 47 600 -2 q 578 -2 546 -2 q 514 -1 478 0 q 443 0 406 0 l 339 0 q 313 0 268 0 q 223 -1 176 -2 q 128 -2 88 -2 q 47 -3 30 -3 q 30 19 32 40 q 34 61 38 75 q 58 76 71 81 q 84 86 92 98 q 99 110 102 131 q 104 152 104 187 l 104 491 q 104 525 102 545 q 99 565 92 576 q 84 588 71 593 q 58 598 37 601 q 33 616 32 639 q 30 662 30 679 q 52 678 86 678 q 119 677 156 676 q 193 676 229 676 l 392 676 q 435 676 468 676 q 500 677 525 678 q 550 678 571 679 z"},"s":{"x_min":0,"x_max":493,"ha":493,"o":"m 421 438 q 418 385 426 330 q 409 319 382 313 q 355 307 327 307 q 322 342 304 366 q 286 390 245 390 q 228 390 219 381 q 210 372 210 358 q 210 349 213 342 q 216 334 226 325 q 236 316 256 306 q 276 295 310 281 q 354 263 384 246 q 413 230 430 213 q 448 196 456 177 q 463 158 463 134 q 463 62 402 26 q 342 -9 230 -9 q 198 -9 172 -7 q 145 -5 122 -1 q 99 3 78 10 q 57 16 36 24 q 41 56 40 90 q 40 124 38 148 q 56 159 85 164 q 114 170 139 170 q 144 120 166 96 q 188 71 219 71 q 239 71 253 80 q 267 89 267 107 q 267 117 264 126 q 260 135 250 143 q 241 151 224 160 q 207 168 181 178 q 151 189 125 202 q 99 215 80 233 q 61 251 50 276 q 40 300 40 334 q 40 403 95 435 q 150 467 245 467 q 305 467 346 460 q 386 453 421 438 z"},">":{"x_min":0,"x_max":492,"ha":492,"o":"m 334 261 l 18 513 q 34 529 57 538 q 80 548 107 550 l 415 305 q 425 285 428 262 q 430 239 428 219 q 374 183 331 152 q 288 122 248 93 q 207 64 164 33 q 122 2 71 -37 q 54 -16 48 10 q 43 36 48 58 z"},"l":{"x_min":0,"x_max":383,"ha":383,"o":"m 94 549 q 92 578 77 591 q 62 604 20 609 q 20 628 22 648 q 25 668 33 684 q 70 684 104 687 q 138 690 166 694 q 194 699 216 705 q 237 711 249 717 q 266 709 275 694 q 284 679 284 653 l 284 162 q 284 137 287 120 q 290 104 298 94 q 305 85 318 80 q 330 76 350 75 q 355 61 356 42 q 358 22 358 -3 q 349 -2 331 -2 q 313 -1 290 0 q 267 0 241 0 l 137 0 q 111 0 88 0 q 65 -1 47 -2 q 29 -2 20 -3 q 20 22 22 42 q 24 61 29 75 q 49 76 62 80 q 74 85 82 94 q 89 104 92 120 q 94 137 94 162 z"},"8":{"x_min":0,"x_max":584,"ha":584,"o":"m 118 308 q 124 312 131 316 q 103 335 83 359 q 46 401 46 458 q 46 539 108 588 q 171 637 292 637 q 342 637 384 628 q 425 620 455 603 q 485 586 502 562 q 519 537 519 504 q 519 473 503 446 q 487 419 461 398 q 441 383 417 372 q 462 344 490 315 q 539 263 539 189 q 539 85 473 38 q 407 -9 286 -9 q 217 -9 170 2 q 122 13 94 35 q 65 57 52 88 q 40 120 40 161 q 40 188 48 214 q 55 241 72 264 q 90 288 118 308 z m 265 247 q 254 254 240 261 l 239 258 q 231 226 231 185 q 231 134 250 102 q 270 69 302 69 q 325 69 337 86 q 349 103 349 130 q 349 148 342 167 q 336 186 317 206 q 298 226 265 247 z m 288 440 q 302 431 322 421 q 339 447 339 491 q 339 526 323 548 q 307 569 280 569 q 259 569 247 554 q 235 540 235 515 q 235 500 240 488 q 244 476 256 464 q 268 452 288 440 z"},"\\":{"x_min":0,"x_max":405,"ha":405,"o":"m 25 709 q 39 713 57 715 q 75 717 101 717 l 111 717 l 377 0 q 360 -5 334 -7 q 309 -9 292 -9 l 25 709 z"},"e":{"x_min":0,"x_max":545,"ha":545,"o":"m 252 182 q 238 181 224 180 q 233 150 249 127 q 282 83 356 83 q 388 83 424 94 q 460 104 482 121 q 493 114 501 94 q 509 74 509 52 q 471 25 419 8 q 367 -9 302 -9 q 227 -9 176 8 q 124 26 92 57 q 59 88 44 130 q 30 172 30 221 q 30 282 49 328 q 68 375 102 406 q 137 436 186 452 q 235 467 295 467 q 353 467 395 448 q 437 428 464 396 q 491 365 503 325 q 515 285 514 245 q 506 210 481 186 q 448 186 410 186 q 372 185 332 184 q 292 184 252 182 z m 236 359 q 218 328 217 256 l 351 256 q 351 316 335 354 q 319 393 287 393 q 255 393 236 359 z"},"b":{"x_min":0,"x_max":648,"ha":648,"o":"m 325 -9 q 283 -9 240 -4 q 197 1 159 11 q 121 21 91 34 q 61 48 45 65 q 69 93 69 161 l 69 539 q 69 574 54 589 q 40 604 -5 609 q -5 628 -2 648 q 0 668 8 684 q 45 684 79 687 q 113 690 141 694 q 169 699 190 705 q 212 711 224 717 q 241 709 250 694 q 259 679 259 653 l 259 480 q 259 463 258 450 q 258 437 257 426 q 256 416 254 406 q 253 400 251 393 q 268 415 285 428 q 304 442 338 454 q 371 467 413 467 q 456 467 494 456 q 531 444 558 420 q 586 395 602 356 q 618 318 618 265 q 618 203 597 152 q 576 102 538 66 q 500 30 446 10 q 391 -9 325 -9 z m 259 96 q 270 82 282 73 q 299 62 322 62 q 339 62 358 68 q 376 75 392 94 q 407 113 417 147 q 427 181 427 236 q 427 260 424 284 q 420 307 412 326 q 403 345 388 357 q 373 369 349 369 q 332 369 316 361 q 300 353 288 335 q 275 317 267 288 q 259 259 259 217 z"},"%":{"x_min":0,"x_max":834,"ha":834,"o":"m 201 -7 q 172 -9 154 4 q 135 16 125 30 l 668 686 q 689 686 712 679 q 736 672 750 657 z m 626 311 q 664 311 692 298 q 721 284 740 262 q 759 241 768 214 q 778 186 778 159 q 778 125 768 94 q 757 64 736 41 q 715 18 684 4 q 654 -9 615 -9 q 574 -9 544 4 q 514 17 494 39 q 474 61 464 88 q 454 116 454 145 q 454 178 465 208 q 476 238 498 261 q 519 284 551 298 q 583 311 626 311 z m 614 235 q 596 235 584 212 q 572 190 572 156 q 572 118 585 92 q 598 67 621 67 q 635 67 648 86 q 661 106 661 147 q 661 185 648 210 q 635 235 614 235 z m 256 677 q 294 677 322 664 q 351 650 370 628 q 390 607 400 580 q 409 553 409 526 q 409 492 398 462 q 388 432 367 409 q 346 386 316 372 q 285 359 246 359 q 205 359 175 372 q 145 385 124 407 q 104 429 94 456 q 84 483 84 512 q 84 544 95 574 q 106 604 128 627 q 149 650 181 664 q 213 677 256 677 z m 245 604 q 227 604 214 582 q 202 559 202 524 q 202 485 215 460 q 228 434 251 434 q 265 434 278 454 q 292 473 292 514 q 292 554 278 579 q 265 604 245 604 z"},"m":{"x_min":0,"x_max":1032,"ha":1032,"o":"m 43 434 q 74 434 106 436 q 137 439 166 443 q 194 447 218 453 q 242 459 257 467 q 271 462 281 446 q 291 431 291 403 q 291 394 290 385 q 288 376 285 364 q 282 353 277 338 q 287 359 293 372 q 306 397 318 409 q 343 434 378 450 q 412 465 453 465 q 504 465 542 444 q 580 424 601 389 q 613 368 617 349 q 636 393 659 413 q 682 435 712 447 q 743 459 780 459 q 867 459 910 418 q 953 377 953 283 l 953 210 q 953 165 954 138 q 955 112 960 98 q 964 85 972 80 q 981 76 997 75 q 1003 58 1005 38 q 1007 18 1007 -3 q 980 -1 943 0 q 906 0 867 0 l 824 0 q 802 0 780 0 q 759 -1 739 -2 q 719 -2 706 -3 q 706 22 708 39 q 709 56 714 75 q 727 76 736 81 q 745 86 751 100 q 757 113 760 137 q 763 161 763 200 l 763 245 q 763 304 749 324 q 735 345 711 345 q 666 345 644 303 q 622 261 622 190 l 622 168 q 622 117 632 97 q 641 77 672 75 q 677 61 680 40 q 682 18 682 -3 q 670 -2 653 -2 q 636 -1 616 0 q 595 0 573 0 l 530 0 q 487 0 444 0 q 400 -1 373 -3 q 373 18 376 39 q 378 60 383 75 q 398 76 408 80 q 418 85 424 99 q 430 113 432 139 q 434 165 434 210 l 434 256 q 434 306 420 326 q 406 345 375 345 q 356 345 340 332 q 325 320 314 299 q 303 278 297 250 q 291 221 291 190 l 291 168 q 291 141 293 124 q 295 106 300 96 q 305 85 314 80 q 324 76 339 75 q 345 59 347 38 q 349 18 349 -3 q 337 -2 317 -2 q 297 -1 274 0 q 250 0 226 0 l 142 0 q 119 0 97 0 q 75 -1 56 -2 q 37 -2 27 -3 q 27 18 29 38 q 31 57 37 74 q 57 75 70 80 q 82 85 89 94 q 96 104 98 120 q 101 137 101 162 l 101 255 q 101 286 99 305 q 97 324 90 335 q 83 346 68 351 q 54 356 29 359 q 29 377 32 396 q 35 415 43 434 z"},"#":{"x_min":0,"x_max":708,"ha":708,"o":"m 518 432 l 489 273 l 604 273 q 604 250 601 228 q 598 207 589 184 l 495 184 l 473 184 l 438 -9 q 412 -9 388 -3 q 365 3 354 14 l 385 184 q 303 184 245 183 l 210 -9 q 189 -9 164 -2 q 140 6 127 18 l 157 183 q 92 182 54 180 q 54 206 56 230 q 59 253 69 273 l 173 273 l 202 430 l 173 430 q 132 430 99 429 q 99 456 102 476 q 105 497 115 522 l 219 522 l 255 717 q 281 717 306 710 q 330 703 338 692 l 307 522 l 447 522 l 483 717 q 508 717 534 710 q 559 702 566 694 l 534 522 l 638 522 q 638 496 635 474 q 632 452 624 432 z m 387 432 q 334 432 290 431 l 261 273 l 401 273 l 430 432 z"},",":{"x_min":0,"x_max":316,"ha":316,"o":"m 202 160 q 231 152 244 130 q 256 109 256 55 q 256 -8 226 -73 q 196 -138 144 -187 q 119 -185 98 -178 q 76 -170 64 -160 q 131 -84 131 -35 q 131 -16 112 -4 q 94 8 60 13 q 60 30 60 44 q 61 57 62 70 q 64 84 68 98 q 71 111 76 128 q 116 130 148 138 q 179 145 202 160 z"},"n":{"x_min":0,"x_max":706,"ha":706,"o":"m 627 162 q 627 112 636 94 q 645 75 670 75 q 677 58 679 40 q 681 22 681 -3 q 670 -3 654 -2 q 637 -2 618 -2 q 599 -1 580 0 q 560 0 542 0 l 500 0 q 477 0 454 0 q 431 -1 410 -2 q 390 -2 379 -3 q 379 18 380 38 q 382 57 389 75 q 410 75 424 96 q 437 117 437 173 l 437 242 q 437 299 422 322 q 407 345 375 345 q 357 345 342 334 q 326 322 314 302 q 303 281 297 252 q 291 224 291 190 l 291 162 q 291 136 294 119 q 298 102 304 92 q 310 82 318 78 q 327 75 338 75 q 346 56 348 38 q 349 20 349 -3 q 338 -2 320 -2 q 301 -1 280 0 q 258 0 236 0 l 153 0 q 129 0 104 0 q 80 -1 59 -2 q 38 -2 27 -3 q 27 20 30 40 q 32 61 37 75 q 76 75 88 94 q 101 112 101 162 l 101 270 q 101 294 99 310 q 97 327 90 337 q 83 347 68 352 q 54 357 30 359 q 30 378 32 398 q 35 418 43 434 q 118 434 176 444 q 233 455 257 467 q 274 459 282 444 q 291 429 291 403 q 291 391 287 375 q 284 360 279 344 q 287 363 295 378 q 304 395 318 409 q 342 433 376 448 q 411 462 453 462 q 487 462 518 453 q 550 444 574 424 q 598 404 612 373 q 627 342 627 299 z"},"h":{"x_min":0,"x_max":699,"ha":699,"o":"m 620 162 q 620 112 629 94 q 638 75 663 75 q 670 58 672 40 q 674 22 674 -3 q 663 -3 646 -2 q 630 -2 611 -2 q 592 -1 572 0 q 553 0 535 0 l 493 0 q 470 0 447 0 q 424 -1 404 -2 q 383 -2 372 -3 q 372 18 374 38 q 375 57 382 75 q 403 75 416 96 q 430 117 430 173 l 430 242 q 430 299 415 322 q 400 345 368 345 q 350 345 334 334 q 319 322 308 302 q 296 281 290 252 q 284 224 284 190 l 284 162 q 284 136 288 119 q 291 102 297 92 q 303 82 312 78 q 320 75 331 75 q 339 56 340 38 q 342 20 342 -3 q 331 -2 312 -2 q 294 -1 272 0 q 251 0 229 0 l 146 0 q 122 0 98 0 q 73 -1 52 -2 q 31 -2 20 -3 q 20 20 22 40 q 25 61 30 75 q 69 75 82 94 q 94 112 94 162 l 94 549 q 92 578 77 591 q 62 604 20 609 q 20 628 22 648 q 25 668 33 684 q 70 684 104 687 q 138 690 166 694 q 194 699 216 705 q 237 711 249 717 q 266 709 275 694 q 284 679 284 653 l 284 403 q 284 391 280 375 q 277 360 272 344 q 280 363 288 378 q 297 395 311 409 q 335 433 370 448 q 404 462 446 462 q 480 462 512 453 q 543 444 567 424 q 591 404 606 373 q 620 342 620 299 z"},"z":{"x_min":0,"x_max":518,"ha":518,"o":"m 52 461 q 113 458 265 458 l 333 458 q 363 458 386 458 q 408 459 426 460 q 444 460 461 461 q 469 450 473 433 q 477 416 477 398 q 430 313 373 225 q 326 151 274 75 l 313 75 q 336 75 350 81 q 365 87 374 101 q 382 115 386 137 q 390 159 392 191 q 418 193 442 190 q 466 188 490 180 q 490 161 490 139 q 491 117 492 96 q 493 74 494 54 q 496 35 498 22 q 487 -2 451 -2 q 434 -2 408 -2 q 383 -1 354 -1 q 326 -1 298 0 q 271 0 250 0 q 184 0 136 0 q 88 -1 61 -2 q 52 12 46 32 q 40 52 40 72 q 70 113 102 158 q 134 204 164 250 q 195 296 222 339 q 237 362 249 383 l 232 383 q 211 383 198 379 q 184 375 174 364 q 165 353 158 334 q 152 315 147 286 q 118 284 89 288 q 60 291 40 302 q 47 337 50 380 q 52 423 52 461 z"},"B":{"x_min":0,"x_max":713,"ha":713,"o":"m 138 676 q 158 676 188 676 q 218 677 250 677 q 283 677 314 678 q 345 678 367 678 q 448 678 502 668 q 555 658 588 638 q 620 619 634 590 q 647 561 647 523 q 647 465 606 423 q 566 381 488 370 q 541 367 578 354 q 615 340 638 318 q 662 295 672 264 q 683 232 683 194 q 683 150 666 114 q 649 79 612 54 q 574 28 514 14 q 454 0 367 0 q 278 0 193 0 q 108 -1 30 -3 q 30 19 32 40 q 34 61 38 75 q 58 76 71 81 q 84 86 92 98 q 99 110 102 131 q 104 152 104 187 l 104 491 q 104 525 102 545 q 99 565 92 576 q 84 588 71 593 q 58 598 37 601 q 33 616 32 639 q 30 662 30 679 q 49 677 80 676 q 112 676 138 676 z m 304 306 l 304 178 q 304 145 310 124 q 315 104 324 92 q 334 81 346 78 q 359 74 373 74 q 410 74 436 102 q 463 130 463 183 q 463 253 429 280 q 395 306 329 306 z m 318 597 q 311 595 304 591 l 304 389 l 340 389 q 389 389 418 416 q 447 442 447 496 q 447 545 420 573 q 393 601 351 601 q 332 601 318 597 z"},"K":{"x_min":0,"x_max":767,"ha":767,"o":"m 104 491 q 104 525 102 545 q 99 565 92 576 q 86 588 73 593 q 60 598 39 601 q 35 616 32 638 q 30 659 30 679 q 42 678 65 678 q 88 677 114 676 q 140 676 165 676 l 250 676 q 273 676 296 676 q 320 677 342 678 q 363 678 378 679 q 378 659 377 640 q 376 621 369 601 q 348 599 336 594 q 323 589 316 578 q 309 566 306 546 q 304 525 304 491 l 304 375 l 439 509 q 462 532 474 549 q 485 566 486 578 q 488 589 480 594 q 473 600 460 601 q 455 618 453 640 q 451 661 451 679 q 470 677 502 676 q 535 676 564 676 l 601 676 q 623 676 646 676 q 669 677 688 678 q 708 678 717 679 q 717 662 714 638 q 711 615 706 601 q 668 599 634 580 q 600 562 565 526 l 458 415 q 506 356 544 301 q 587 240 626 176 q 659 123 689 101 q 719 79 757 75 q 757 52 755 34 q 753 15 745 0 q 726 0 692 0 q 657 -1 618 -2 q 580 -3 546 -4 q 511 -6 492 -9 q 447 83 394 171 q 355 237 304 299 l 304 187 q 304 152 306 131 q 309 110 316 98 q 324 86 337 81 q 350 76 370 75 q 374 61 376 39 q 378 17 378 -3 q 355 -1 313 0 q 271 0 219 0 q 167 0 116 0 q 65 -1 30 -3 q 30 15 33 38 q 36 61 40 75 q 60 76 72 81 q 85 86 92 98 q 99 110 102 131 q 104 152 104 187 z"},"R":{"x_min":0,"x_max":718,"ha":718,"o":"m 202 676 q 231 676 288 678 q 344 681 409 681 q 474 681 521 666 q 568 651 598 626 q 629 600 644 566 q 658 531 658 493 q 658 442 644 404 q 630 365 606 338 q 581 311 548 296 q 534 289 519 285 q 530 281 538 276 q 554 268 568 252 q 581 236 595 210 q 609 185 629 145 q 639 125 647 113 q 655 101 664 94 q 673 86 683 82 q 693 79 708 78 q 708 37 697 -1 q 618 -1 556 -3 q 494 -5 468 -9 q 456 26 442 66 q 429 106 413 144 q 402 172 394 192 q 385 211 376 225 q 366 239 355 249 q 349 254 342 259 l 333 259 q 322 259 311 259 l 304 259 l 304 197 q 304 156 306 132 q 309 108 315 96 q 321 83 330 80 q 339 76 353 75 q 357 64 358 42 q 360 19 360 -3 q 346 -2 324 -2 q 301 -1 276 0 q 251 0 227 0 l 185 0 q 144 0 104 0 q 65 -1 30 -3 q 30 23 32 42 q 34 61 38 75 q 58 76 71 81 q 84 86 92 98 q 99 110 102 131 q 104 152 104 187 l 104 493 q 104 527 102 547 q 99 567 92 578 q 84 590 71 595 q 58 600 37 603 q 35 610 34 621 q 32 632 32 644 q 31 655 30 665 q 30 675 30 680 q 60 678 105 677 q 150 676 202 676 z m 346 603 q 324 603 304 596 l 304 350 q 314 348 319 348 q 327 347 334 347 q 355 347 376 354 q 397 362 413 377 q 429 392 439 415 q 449 438 449 469 q 449 534 421 568 q 393 603 346 603 z"},"T":{"x_min":0,"x_max":719,"ha":719,"o":"m 257 601 l 255 601 q 200 601 172 570 q 144 538 128 473 q 100 473 73 476 q 46 478 25 488 q 30 508 34 532 q 39 557 42 582 q 46 608 48 633 q 50 658 50 679 q 81 678 112 678 q 142 677 178 676 q 213 676 257 676 l 460 676 q 503 676 539 676 q 575 677 607 678 q 639 678 670 679 q 670 637 676 586 q 683 534 694 489 q 674 481 648 477 q 621 473 590 473 q 576 540 552 570 q 528 601 477 601 l 457 601 l 457 187 q 457 152 461 131 q 465 110 476 98 q 486 86 505 81 q 524 76 555 75 q 560 61 562 39 q 565 17 565 -3 q 537 -1 486 0 q 434 0 370 0 l 304 0 q 270 0 239 0 q 208 -1 182 -2 q 155 -2 139 -3 q 139 15 142 38 q 146 61 151 75 q 182 76 202 81 q 223 86 235 98 q 247 110 252 131 q 257 152 257 187 z"},"P":{"x_min":0,"x_max":663,"ha":663,"o":"m 347 599 q 322 599 304 592 l 304 197 q 304 165 309 142 q 314 120 327 106 q 340 92 360 84 q 381 77 413 75 q 419 58 420 37 q 422 16 422 -3 q 408 -2 386 -2 q 363 -1 336 0 q 310 0 283 0 l 176 0 q 148 0 121 0 q 94 -1 70 -2 q 47 -2 30 -3 q 30 24 32 42 q 33 61 37 75 q 57 76 70 81 q 83 86 90 98 q 98 110 101 131 q 104 152 104 187 l 104 491 q 104 525 102 545 q 99 565 92 576 q 86 588 73 593 q 60 598 39 601 q 35 616 32 636 q 30 655 30 679 q 78 677 118 676 q 158 676 203 676 q 248 676 298 677 q 349 678 420 678 q 482 678 524 660 q 567 643 594 613 q 620 583 632 544 q 643 504 643 460 q 643 409 626 364 q 610 319 579 286 q 548 253 504 234 q 460 215 406 215 q 363 215 337 225 q 330 266 346 297 q 352 295 357 295 l 368 295 q 384 295 399 302 q 414 310 426 328 q 438 345 446 373 q 453 401 453 442 q 453 476 446 504 q 440 533 426 554 q 413 575 393 587 q 373 599 347 599 z"},"|":{"x_min":0,"x_max":210,"ha":210,"o":"m 62 716 q 86 716 113 712 q 140 708 151 701 q 151 659 150 606 q 150 553 150 492 q 149 432 148 366 q 148 301 148 234 q 148 167 148 100 q 149 33 150 -30 q 150 -93 150 -149 q 151 -205 151 -249 q 129 -249 103 -246 q 77 -244 62 -238 z"},"t":{"x_min":0,"x_max":399,"ha":399,"o":"m 80 448 l 80 563 q 125 568 168 584 q 212 600 238 620 q 256 612 263 598 q 270 584 270 550 l 270 448 l 387 448 q 387 422 384 404 q 382 385 377 368 q 316 368 270 350 l 270 186 q 270 151 272 130 q 275 109 280 98 q 286 86 295 82 q 304 78 317 78 q 329 78 345 81 q 361 84 374 89 q 381 79 385 62 q 389 45 389 25 q 367 10 326 0 q 286 -9 241 -9 q 161 -9 120 32 q 80 73 80 174 l 80 357 q 64 364 46 366 q 28 369 5 369 q 5 392 8 410 q 11 429 19 448 z"},"M":{"x_min":0,"x_max":998,"ha":998,"o":"m 306 677 q 324 678 332 679 l 513 247 l 669 679 q 682 678 702 678 q 722 677 742 676 q 763 676 782 676 l 843 676 q 862 676 882 676 q 901 677 919 678 q 937 678 948 679 q 948 658 946 637 q 945 616 940 601 q 917 601 903 596 q 889 590 882 576 q 875 563 874 540 q 873 518 876 485 l 904 211 q 908 166 913 140 q 918 115 926 102 q 935 88 948 83 q 961 78 981 76 q 988 44 988 -3 q 978 -2 954 -2 q 929 -1 900 0 q 870 0 840 0 l 793 0 q 775 0 752 0 q 729 -1 707 -2 q 685 -2 666 -2 q 648 -3 639 -3 q 639 22 642 40 q 644 57 648 75 q 671 78 684 83 q 697 88 703 101 q 709 114 709 138 q 709 161 705 200 l 675 475 l 489 -1 q 476 -6 454 -8 q 432 -9 414 -9 l 203 472 l 179 246 q 174 193 174 160 q 175 128 182 110 q 190 91 204 84 q 217 76 238 75 q 243 58 244 38 q 246 19 246 -3 q 231 -1 200 0 q 168 0 136 0 q 120 0 102 0 q 83 -1 65 -2 q 47 -2 32 -2 q 17 -3 10 -3 q 10 19 12 38 q 13 58 18 75 q 37 76 51 84 q 65 92 76 111 q 86 130 92 162 q 99 194 104 242 l 126 486 q 129 522 128 544 q 127 567 120 580 q 113 592 99 596 q 85 601 64 601 q 59 619 58 637 q 56 655 56 679 q 67 678 86 678 q 105 677 126 676 q 146 676 165 676 l 228 676 q 248 676 268 676 q 289 677 306 677 z"},"g":{"x_min":0,"x_max":584,"ha":584,"o":"m 274 467 q 326 467 364 458 l 556 458 q 564 441 566 418 q 569 395 569 368 q 534 382 504 388 q 493 390 481 392 q 500 370 507 348 q 517 321 517 306 q 517 230 454 186 q 390 141 278 141 q 233 141 196 146 q 180 137 180 126 q 180 120 184 115 q 189 110 208 106 q 227 103 266 102 q 304 100 371 100 q 468 100 512 64 q 556 29 556 -37 q 556 -85 532 -124 q 509 -163 467 -191 q 425 -219 368 -234 q 310 -249 243 -249 q 175 -249 132 -240 q 89 -232 64 -216 q 39 -201 30 -180 q 20 -158 20 -132 q 20 -98 43 -69 q 60 -48 91 -37 q 74 -24 65 -6 q 52 20 52 58 q 52 93 76 123 q 97 149 124 166 q 109 173 96 181 q 33 221 33 306 q 33 382 94 424 q 155 467 274 467 z m 271 406 q 244 406 232 380 q 220 353 220 316 q 220 263 238 237 q 256 211 285 211 q 308 211 322 234 q 336 257 336 300 q 336 346 320 376 q 304 406 271 406 z m 188 -73 q 181 -72 174 -71 q 171 -76 169 -79 q 164 -90 164 -108 q 164 -140 187 -156 q 210 -171 264 -171 q 326 -171 360 -154 q 394 -137 394 -110 q 394 -103 392 -98 q 389 -92 380 -88 q 371 -84 354 -82 q 337 -81 308 -81 q 237 -81 188 -73 z"},"j":{"x_min":0,"x_max":332,"ha":332,"o":"m 101 289 q 101 324 86 339 q 72 354 27 359 q 27 378 30 398 q 32 418 40 434 q 77 434 111 437 q 145 440 173 444 q 201 449 222 455 q 244 461 256 467 q 273 459 282 444 q 291 429 291 403 l 291 83 q 291 17 268 -36 q 245 -90 211 -132 q 177 -173 136 -202 q 96 -232 62 -249 q 43 -239 30 -219 q 18 -199 15 -175 q 39 -151 56 -128 q 72 -105 82 -80 q 92 -56 96 -28 q 101 1 101 37 z m 80 595 q 80 640 110 662 q 141 684 189 684 q 297 684 297 597 q 297 560 266 537 q 236 514 182 514 q 134 514 107 536 q 80 558 80 595 z"},"i":{"x_min":0,"x_max":390,"ha":390,"o":"m 291 162 q 291 137 294 120 q 297 104 304 94 q 312 85 324 80 q 337 76 357 75 q 362 61 364 42 q 365 22 365 -3 q 356 -2 338 -2 q 320 -1 297 0 q 274 0 248 0 l 144 0 q 118 0 95 0 q 72 -1 54 -2 q 36 -2 27 -3 q 27 22 29 42 q 31 61 36 75 q 56 76 68 80 q 81 85 88 94 q 96 104 98 120 q 101 137 101 162 l 101 289 q 101 324 86 339 q 72 354 27 359 q 27 378 30 398 q 32 418 40 434 q 77 434 111 437 q 145 440 173 444 q 201 449 222 455 q 244 461 256 467 q 273 459 282 444 q 291 429 291 403 z m 69 595 q 69 640 100 662 q 130 684 178 684 q 286 684 286 597 q 286 560 256 537 q 225 514 171 514 q 123 514 96 536 q 69 558 69 595 z"},"y":{"x_min":0,"x_max":579,"ha":579,"o":"m 252 -63 q 254 -60 257 -54 q 239 -10 218 36 q 197 86 174 135 q 152 184 130 231 q 107 278 87 319 q 78 338 70 350 q 61 361 54 368 q 46 375 38 378 q 29 381 20 383 q 15 398 12 420 q 10 443 10 461 q 39 459 80 458 q 121 458 163 458 q 208 458 256 458 q 303 459 334 461 q 334 441 330 418 q 327 395 322 383 q 304 380 294 376 q 284 371 282 363 q 279 355 284 342 q 288 328 299 307 q 321 265 340 216 q 348 197 355 176 l 404 298 q 414 322 417 337 q 420 352 418 362 q 415 371 406 376 q 398 381 384 383 q 379 397 376 418 q 373 440 373 461 q 396 459 424 458 q 451 458 474 458 q 499 458 522 459 q 546 460 569 462 q 569 444 566 422 q 563 400 556 383 q 533 377 520 363 q 506 349 490 313 l 343 -37 q 314 -105 290 -147 q 266 -189 243 -212 q 220 -234 197 -242 q 174 -249 148 -249 q 115 -249 82 -234 q 50 -218 34 -195 q 31 -175 34 -144 q 37 -113 47 -87 q 64 -94 94 -100 q 125 -106 163 -106 q 181 -106 194 -104 q 207 -102 217 -97 q 227 -92 236 -84 q 244 -76 252 -63 z"},"@":{"x_min":0,"x_max":1001,"ha":1001,"o":"m 459 467 q 491 467 518 464 q 544 462 577 455 q 622 455 656 457 q 694 460 717 467 q 726 462 732 456 q 737 450 740 440 q 744 430 745 414 q 746 397 746 371 l 746 228 q 746 187 748 162 q 749 138 752 125 q 756 112 762 108 q 767 104 775 104 q 784 104 794 114 q 804 125 813 149 q 822 173 828 212 q 833 251 833 308 q 833 364 816 414 q 800 465 763 503 q 726 541 667 564 q 608 586 523 586 q 436 586 370 558 q 305 531 262 483 q 218 435 196 371 q 174 307 174 234 q 174 163 194 98 q 214 34 257 -16 q 300 -65 368 -94 q 435 -124 531 -124 q 613 -124 686 -99 q 758 -74 811 -20 q 828 -26 840 -39 q 852 -52 860 -68 q 836 -100 800 -125 q 764 -150 720 -167 q 675 -184 624 -193 q 572 -202 518 -202 q 404 -202 321 -170 q 238 -138 184 -80 q 130 -23 104 56 q 79 135 79 228 q 79 318 110 396 q 140 475 199 534 q 258 592 344 626 q 429 660 539 660 q 637 660 708 635 q 780 610 827 567 q 874 524 897 465 q 920 406 920 339 q 920 259 902 195 q 883 131 849 86 q 815 40 766 16 q 717 -9 656 -9 q 615 -9 588 17 q 561 43 561 89 l 561 92 q 559 89 557 86 q 530 41 490 16 q 450 -9 397 -9 q 320 -9 284 46 q 249 100 249 205 q 249 263 266 312 q 284 360 313 394 q 342 429 380 448 q 418 467 459 467 z m 562 280 q 563 323 564 367 l 564 369 q 552 378 540 383 q 522 390 505 390 q 487 390 474 385 q 461 380 454 364 q 446 348 442 320 q 439 291 439 243 q 439 165 450 132 q 462 99 483 99 q 516 99 537 157 q 553 203 562 280 z"},".":{"x_min":0,"x_max":327,"ha":327,"o":"m 169 192 q 191 192 210 184 q 228 176 240 163 q 253 150 260 133 q 267 116 267 98 q 267 55 240 24 q 214 -8 163 -8 q 115 -8 88 19 q 60 46 60 93 q 60 140 91 166 q 122 192 169 192 z"},"p":{"x_min":0,"x_max":678,"ha":678,"o":"m 353 -9 q 335 -9 318 -7 q 304 -5 289 -2 l 289 -57 q 290 -115 314 -139 q 338 -163 398 -167 q 404 -184 406 -205 q 407 -226 407 -245 q 393 -244 372 -244 q 351 -243 326 -242 q 302 -242 276 -242 l 171 -242 q 143 -242 116 -242 q 89 -243 66 -244 q 42 -244 25 -245 q 25 -218 26 -200 q 28 -181 32 -167 q 52 -166 65 -161 q 78 -156 86 -144 q 93 -132 96 -111 q 99 -90 99 -55 l 99 270 q 99 294 97 310 q 95 327 88 337 q 81 347 66 352 q 52 357 28 359 q 28 378 30 398 q 33 418 41 434 q 116 434 174 444 q 231 455 255 467 q 272 459 280 444 q 289 429 289 403 q 302 418 315 428 q 334 442 368 454 q 401 467 443 467 q 486 467 524 456 q 561 444 588 420 q 616 395 632 356 q 648 318 648 265 q 648 203 627 152 q 606 102 567 66 q 528 30 474 10 q 419 -9 353 -9 z m 297 289 q 289 260 289 218 l 289 96 q 300 82 312 73 q 329 62 352 62 q 369 62 388 68 q 406 75 422 94 q 437 113 447 147 q 457 181 457 236 q 457 260 454 284 q 450 308 442 326 q 433 345 418 357 q 403 369 379 369 q 362 369 346 361 q 330 353 318 336 q 305 318 297 289 z"},"X":{"x_min":0,"x_max":720,"ha":720,"o":"m 372 506 q 395 470 419 433 l 456 490 q 493 548 492 572 q 492 596 459 601 q 454 618 453 638 q 452 659 452 679 q 464 678 481 677 l 515 676 q 532 676 548 676 l 602 676 q 618 676 634 676 q 650 677 665 678 q 680 678 689 679 q 689 657 688 638 q 687 619 682 601 q 659 595 643 588 q 627 582 613 570 q 599 559 584 540 q 570 522 551 492 l 465 361 q 468 356 472 350 q 495 314 512 285 q 530 256 539 241 q 572 186 594 154 q 615 122 632 106 q 648 89 662 84 q 677 78 696 75 q 702 58 704 39 q 705 20 705 -3 q 694 -2 672 -2 q 651 -1 624 0 q 598 0 570 0 l 468 0 q 442 0 418 0 q 393 -1 372 -2 q 352 -2 341 -2 q 341 19 342 37 q 343 55 348 75 q 365 76 374 81 q 382 86 380 100 q 377 114 363 142 q 349 169 321 217 q 314 229 303 247 l 269 197 q 245 162 234 140 q 222 117 221 104 q 220 91 230 84 q 239 78 258 75 q 263 56 264 37 q 266 18 266 -3 q 240 -1 204 0 q 167 0 139 0 l 107 0 q 90 0 73 0 q 56 -1 40 -2 q 25 -2 15 -3 q 15 20 17 42 q 19 63 24 77 q 46 83 65 92 q 84 100 102 114 q 121 129 139 150 q 157 170 178 199 l 260 315 q 254 325 247 336 q 224 373 198 414 q 172 454 148 491 q 125 525 110 546 q 94 566 82 578 q 70 589 60 593 q 49 597 35 600 q 29 620 28 638 q 26 657 26 679 q 39 678 64 678 q 90 677 120 676 q 150 676 180 676 l 233 676 q 279 676 318 676 q 357 677 380 678 q 380 659 378 640 q 377 621 373 601 q 358 598 348 594 q 339 589 338 579 q 337 569 345 552 q 353 534 372 506 z"},"*":{"x_min":0,"x_max":508,"ha":508,"o":"m 361 652 q 349 635 340 620 q 330 604 321 589 q 312 574 304 558 q 295 542 286 523 q 307 530 324 536 q 341 541 357 548 q 373 554 390 561 q 408 568 429 578 q 443 542 446 507 q 449 472 444 430 q 420 437 401 442 q 382 447 364 451 q 347 455 329 458 q 311 462 290 465 q 317 434 340 408 q 364 382 395 350 q 366 327 330 310 q 294 293 256 290 q 254 332 251 367 q 248 402 240 444 q 217 412 198 382 q 180 353 157 315 q 126 337 104 362 q 82 387 69 422 q 107 438 138 452 q 170 467 204 486 q 169 499 137 506 q 105 514 60 523 q 70 555 88 586 q 105 618 130 641 q 156 609 178 585 q 199 561 232 530 q 232 569 230 605 q 228 641 223 682 q 258 682 295 674 q 332 667 361 652 z"},"Y":{"x_min":0,"x_max":620,"ha":620,"o":"m 416 287 l 416 198 q 416 161 420 138 q 423 115 434 102 q 444 88 464 82 q 483 77 515 75 q 522 54 524 38 q 525 21 525 -3 q 481 -1 424 0 q 368 0 311 0 q 254 0 200 -1 q 145 -2 98 -3 q 99 19 101 38 q 103 58 110 75 q 146 78 167 82 q 188 87 199 100 q 210 113 213 136 q 216 159 216 199 l 216 292 l 84 542 q 66 577 50 588 q 35 599 18 601 q 13 618 12 636 q 10 653 10 678 q 28 677 51 676 q 74 676 97 676 l 261 676 q 285 676 308 676 q 331 677 346 678 q 346 652 344 635 q 342 618 339 601 q 323 599 316 592 q 309 586 308 576 q 307 567 311 555 q 315 543 321 530 q 337 497 357 447 q 371 413 385 378 q 398 413 411 444 q 430 488 450 529 q 464 558 458 578 q 451 599 423 601 q 418 618 416 635 q 414 652 414 678 q 441 676 464 676 l 563 676 q 586 676 610 678 q 610 652 608 634 q 605 615 601 601 q 592 599 584 596 q 577 592 570 584 q 562 575 552 559 q 543 543 530 517 z"},"c":{"x_min":0,"x_max":484,"ha":484,"o":"m 469 42 q 443 18 397 4 q 351 -9 295 -9 q 233 -9 184 5 q 135 19 101 48 q 67 77 48 122 q 30 166 30 227 q 30 272 46 315 q 61 358 92 392 q 124 426 172 446 q 219 467 283 467 q 344 467 386 457 q 429 447 464 428 q 457 400 454 370 q 451 339 451 296 q 428 285 400 282 q 372 279 346 279 q 346 337 330 366 q 314 395 288 395 q 270 395 257 383 q 244 371 235 350 q 226 329 222 301 q 217 273 217 241 q 217 212 224 184 q 231 156 246 134 q 262 111 286 97 q 311 83 346 83 q 378 83 403 89 q 428 95 446 106 q 457 95 463 78 q 469 62 469 42 z"},"!":{"x_min":0,"x_max":411,"ha":411,"o":"m 270 717 q 291 712 298 694 q 304 676 298 635 q 293 600 288 554 q 283 508 278 456 q 272 404 267 350 q 262 296 258 245 q 231 245 204 246 q 177 248 156 258 q 146 364 132 468 q 119 572 101 675 q 121 676 144 680 q 167 685 190 691 q 212 697 232 704 q 253 710 270 717 z m 212 192 q 234 192 252 184 q 271 176 284 163 q 296 150 303 133 q 310 116 310 98 q 310 55 284 24 q 257 -8 206 -8 q 158 -8 130 19 q 103 46 103 93 q 103 140 134 166 q 165 192 212 192 z"},"/":{"x_min":0,"x_max":401,"ha":401,"o":"m 116 -9 q 57 -9 29 8 l 294 717 q 317 717 338 711 q 360 705 377 695 z"},"[":{"x_min":0,"x_max":326,"ha":326,"o":"m 47 742 q 74 741 97 741 l 201 741 q 230 741 264 742 q 273 723 274 702 q 276 682 276 659 q 243 656 223 652 q 203 648 192 639 q 181 630 178 614 q 174 599 174 575 l 174 -96 q 174 -122 177 -138 q 180 -155 190 -164 q 200 -174 218 -178 q 236 -183 265 -184 q 273 -207 274 -226 q 276 -245 276 -269 q 243 -268 216 -268 q 190 -267 167 -267 q 139 -267 111 -268 q 83 -268 47 -269 z"},"6":{"x_min":0,"x_max":588,"ha":588,"o":"m 467 565 q 396 550 350 522 q 303 493 275 452 q 252 417 240 374 q 248 377 256 380 q 302 395 352 395 q 451 395 504 345 q 558 295 558 212 q 558 147 533 104 q 508 61 470 36 q 432 11 386 1 q 340 -9 297 -9 q 237 -9 188 4 q 140 17 106 46 q 72 76 54 124 q 35 171 35 240 q 35 314 55 372 q 75 430 108 474 q 141 518 184 548 q 227 579 274 598 q 320 617 366 626 q 412 636 451 638 q 461 627 465 608 q 469 588 467 565 z m 252 311 q 240 309 228 305 q 225 274 225 241 q 225 160 246 118 q 268 75 302 75 q 333 75 350 104 q 367 133 367 185 q 367 245 340 280 q 314 314 276 314 q 265 314 252 311 z"},"r":{"x_min":0,"x_max":521,"ha":521,"o":"m 291 197 q 291 165 296 142 q 301 120 314 106 q 327 92 348 84 q 368 77 400 75 q 406 58 408 37 q 409 16 409 -3 q 395 -2 374 -2 q 353 -1 328 0 q 304 0 278 0 l 173 0 q 145 0 118 0 q 91 -1 68 -2 q 44 -2 27 -3 q 27 24 28 42 q 30 61 34 75 q 54 76 67 81 q 80 86 88 98 q 95 110 98 131 q 101 152 101 187 l 101 270 q 101 294 99 310 q 97 327 90 337 q 83 347 68 352 q 54 357 30 359 q 30 378 32 398 q 35 418 43 434 q 118 434 176 444 q 233 455 257 467 q 274 459 282 444 q 291 429 291 403 q 291 386 286 363 q 282 344 275 314 l 276 316 q 280 329 284 341 q 289 353 294 364 q 298 375 302 381 q 324 416 358 439 q 391 462 432 462 q 472 462 506 438 q 503 421 500 399 q 498 377 496 354 q 495 331 494 308 q 494 286 496 268 q 486 263 472 260 q 458 258 444 256 q 429 255 414 254 q 400 254 390 254 q 389 318 351 318 q 341 318 330 308 q 320 299 311 284 q 302 269 296 250 q 291 230 291 209 z"},"2":{"x_min":0,"x_max":504,"ha":504,"o":"m 274 506 q 375 506 420 474 q 465 442 465 388 q 465 363 457 342 q 449 322 432 302 q 414 282 386 261 q 358 240 317 214 q 283 193 256 175 l 234 160 l 291 160 q 319 160 336 162 q 352 163 361 168 q 370 174 374 184 q 378 194 381 211 q 404 211 429 209 q 454 207 468 202 q 468 156 470 112 q 473 69 479 41 q 472 20 456 9 q 440 -2 417 -2 q 402 -2 380 -2 q 359 -1 334 0 q 310 0 283 0 l 230 0 q 177 0 130 0 q 84 -1 55 -2 q 30 36 30 97 q 57 124 89 151 q 121 178 168 217 q 201 245 222 265 q 242 285 254 302 q 265 319 269 334 q 273 349 273 366 q 273 393 258 410 q 243 428 212 428 q 197 428 186 422 q 175 416 167 402 q 159 388 154 365 q 148 342 145 307 q 112 307 90 311 q 68 315 47 322 q 48 335 49 353 q 50 371 50 390 q 50 408 48 426 q 47 444 44 458 q 88 481 140 494 q 193 506 274 506 z"},"{":{"x_min":0,"x_max":421,"ha":421,"o":"m 345 754 q 358 743 362 723 q 366 703 366 685 q 315 668 298 636 q 281 604 282 564 q 282 542 286 518 q 290 495 294 471 q 298 447 302 424 q 305 400 305 378 q 305 354 299 332 q 293 310 278 293 q 262 276 235 264 q 208 252 166 246 q 208 240 234 227 q 261 214 277 196 q 293 178 300 156 q 306 134 306 109 q 306 86 303 62 q 300 38 296 14 l 289 -34 q 286 -58 286 -80 q 286 -101 290 -120 q 293 -139 302 -155 q 312 -171 329 -184 q 346 -196 372 -203 q 378 -222 375 -243 q 372 -264 358 -283 q 288 -273 244 -251 q 200 -229 175 -200 q 150 -171 141 -137 q 132 -103 131 -69 q 130 -33 134 3 q 137 39 136 73 q 135 97 130 118 q 126 139 115 157 q 104 175 84 190 q 65 204 35 213 l 35 226 q 35 235 36 244 q 36 253 37 262 q 38 270 40 275 q 69 284 88 298 q 106 311 117 328 q 128 345 132 364 q 137 384 138 405 q 139 440 134 478 q 129 517 130 555 q 131 587 138 617 q 146 647 169 672 q 192 698 234 719 q 276 740 345 754 z"},"9":{"x_min":0,"x_max":583,"ha":583,"o":"m 299 24 q 329 63 344 111 q 338 109 332 107 q 286 92 236 92 q 187 92 148 106 q 110 121 84 146 q 58 172 44 207 q 30 242 30 283 q 30 350 54 393 q 79 436 118 461 q 156 486 202 496 q 248 506 291 506 q 351 506 400 493 q 448 480 482 450 q 516 421 534 373 q 553 325 553 256 q 553 181 532 121 q 510 61 474 14 q 437 -33 390 -66 q 344 -100 294 -122 q 244 -145 194 -156 q 145 -167 104 -169 q 95 -158 90 -138 q 86 -119 88 -96 q 161 -81 214 -50 q 266 -19 299 24 z m 336 175 q 348 177 359 181 q 363 209 363 238 q 363 333 342 378 q 320 422 286 422 q 255 422 238 393 q 221 364 221 312 q 221 282 228 257 q 235 232 248 213 q 260 194 276 184 q 293 173 312 173 q 323 173 336 175 z"}," ":{"x_min":0,"x_max":200,"ha":200,"o":""},"I":{"x_min":0,"x_max":408,"ha":408,"o":"m 104 491 q 104 525 102 545 q 99 565 92 576 q 86 588 73 593 q 60 598 39 601 q 35 616 32 638 q 30 659 30 679 q 42 678 65 678 q 88 677 114 676 q 140 676 165 676 l 250 676 q 273 676 296 676 q 320 677 342 678 q 363 678 378 679 q 378 659 377 640 q 376 621 369 601 q 348 599 336 594 q 323 589 316 578 q 309 566 306 546 q 304 525 304 491 l 304 187 q 304 152 306 131 q 309 110 316 98 q 324 86 337 81 q 350 76 370 75 q 374 61 376 39 q 378 17 378 -3 q 355 -1 313 0 q 271 0 219 0 q 167 0 116 0 q 65 -1 30 -3 q 30 15 33 38 q 36 61 40 75 q 60 76 72 81 q 85 86 92 98 q 99 110 102 131 q 104 152 104 187 z"},"H":{"x_min":0,"x_max":802,"ha":802,"o":"m 498 314 q 475 314 451 313 q 410 313 369 312 q 336 311 304 309 l 304 187 q 304 152 306 131 q 309 110 316 98 q 324 86 337 81 q 350 76 370 75 q 374 61 376 39 q 378 17 378 -3 q 355 -1 313 0 q 271 0 219 0 q 167 0 116 0 q 65 -1 30 -3 q 30 15 33 38 q 36 61 40 75 q 60 76 72 81 q 85 86 92 98 q 99 110 102 131 q 104 152 104 187 l 104 491 q 104 525 102 545 q 99 565 92 576 q 86 588 73 593 q 60 598 39 601 q 35 616 32 638 q 30 659 30 679 q 42 678 65 678 q 88 677 114 676 q 140 676 165 676 l 250 676 q 273 676 296 676 q 320 677 342 678 q 363 678 378 679 q 378 659 377 640 q 376 621 369 601 q 348 599 336 594 q 323 589 316 578 q 309 566 306 546 q 304 525 304 491 l 304 387 l 498 387 l 498 491 q 498 525 496 545 q 493 565 486 576 q 480 588 467 593 q 454 598 433 601 q 429 616 426 638 q 424 659 424 679 q 436 678 459 678 q 482 677 508 676 q 534 676 559 676 l 644 676 q 667 676 690 676 q 714 677 736 678 q 757 678 772 679 q 772 659 771 640 q 770 621 763 601 q 742 599 730 594 q 717 589 710 578 q 703 566 700 546 q 698 525 698 491 l 698 187 q 698 152 700 131 q 703 110 710 98 q 718 86 731 81 q 744 76 764 75 q 768 61 770 39 q 772 17 772 -3 q 749 -1 707 0 q 665 0 613 0 q 561 0 510 0 q 459 -1 424 -3 q 424 15 427 38 q 430 61 434 75 q 454 76 466 81 q 479 86 486 98 q 493 110 496 131 q 498 152 498 187 z"},"4":{"x_min":0,"x_max":615,"ha":615,"o":"m 490 0 l 490 -142 q 441 -142 403 -149 q 365 -156 326 -171 q 312 -160 306 -146 q 300 -133 300 -107 l 300 0 l 271 0 q 218 0 166 -1 q 113 -2 50 -7 q 34 24 24 58 q 15 92 15 128 q 34 147 50 163 q 65 179 80 196 q 96 213 113 233 q 130 253 151 279 q 202 343 255 404 q 308 464 349 506 q 422 509 490 500 l 490 161 l 541 161 q 562 161 576 154 q 589 148 600 130 q 592 111 588 96 q 583 81 580 67 q 578 53 577 37 q 576 21 576 0 z m 300 160 l 300 346 l 156 160 z"},"~":{"x_min":0,"x_max":607,"ha":607,"o":"m 94 180 q 75 187 61 197 q 47 207 39 226 q 62 269 85 298 q 108 326 130 343 q 152 360 172 367 q 192 374 210 374 q 242 374 270 360 q 297 345 324 328 q 350 310 376 296 q 401 281 428 281 q 453 281 474 297 q 496 313 523 354 q 538 349 554 336 q 571 322 579 310 q 556 267 534 240 q 512 213 492 198 q 472 183 454 178 q 437 172 423 172 q 389 172 362 187 q 334 202 309 220 q 284 239 259 254 q 234 269 206 269 q 177 269 149 250 q 121 231 94 180 z"},"D":{"x_min":0,"x_max":739,"ha":739,"o":"m 30 679 q 46 678 68 678 q 90 677 115 676 q 140 676 167 676 l 220 676 q 244 676 274 677 q 304 678 344 678 q 417 678 482 666 q 548 654 597 618 q 646 583 675 520 q 704 457 704 355 q 704 274 684 216 q 664 158 632 119 q 599 80 558 56 q 518 32 478 20 q 437 8 400 4 q 364 0 339 0 q 313 0 268 0 q 223 -1 176 -2 q 128 -2 88 -2 q 47 -3 30 -3 q 30 19 32 40 q 34 61 38 75 q 58 76 71 81 q 84 86 92 98 q 99 110 102 131 q 104 152 104 187 l 104 491 q 104 525 102 545 q 99 565 92 576 q 84 588 71 593 q 58 598 37 601 q 33 616 32 639 q 30 662 30 679 z m 304 192 q 304 157 308 134 q 311 112 320 99 q 329 86 344 80 q 359 75 382 75 q 393 75 414 82 q 434 89 454 116 q 473 142 488 194 q 502 246 502 337 q 502 417 489 468 q 476 520 454 550 q 432 580 404 592 q 375 603 344 603 q 322 603 304 595 z"},"^":{"x_min":0,"x_max":556,"ha":556,"o":"m 278 608 q 223 545 177 488 q 131 430 88 368 q 69 380 54 400 q 39 421 37 438 l 240 698 q 253 703 270 706 q 286 708 312 708 q 333 675 360 635 q 386 595 414 554 q 441 513 468 474 q 495 436 517 405 q 501 392 480 387 q 458 382 436 384 z"},"0":{"x_min":0,"x_max":629,"ha":629,"o":"m 300 431 q 282 431 266 418 q 251 406 240 386 q 229 366 223 340 q 217 313 217 285 q 217 250 224 212 q 232 175 247 144 q 262 112 283 92 q 304 72 331 72 q 350 72 365 84 q 380 97 390 118 q 399 139 404 166 q 409 194 409 224 q 409 258 402 294 q 394 331 380 362 q 366 392 346 412 q 326 431 300 431 z m 318 506 q 381 506 433 490 q 485 473 522 441 q 559 409 579 362 q 599 315 599 255 q 599 192 578 143 q 556 94 518 60 q 480 26 428 8 q 377 -9 318 -9 q 256 -9 204 8 q 151 26 112 60 q 74 93 52 142 q 30 192 30 255 q 30 318 54 366 q 77 413 116 444 q 156 475 208 490 q 261 506 318 506 z"},"F":{"x_min":0,"x_max":607,"ha":607,"o":"m 571 679 q 571 660 572 636 q 574 613 577 588 q 580 564 584 542 q 587 519 592 501 q 572 493 549 488 q 526 483 491 483 q 486 510 478 532 q 470 554 454 569 q 439 584 414 592 q 390 601 353 601 l 304 601 l 304 339 l 315 339 q 364 339 380 355 q 395 371 396 410 q 413 417 437 420 q 461 422 484 422 q 482 398 481 370 q 480 343 480 305 q 480 263 481 236 q 482 208 484 186 q 456 186 436 188 q 415 190 398 196 q 394 237 376 250 q 359 264 315 264 l 304 264 l 304 197 q 304 165 309 142 q 314 120 327 106 q 340 92 360 84 q 381 77 413 75 q 419 58 420 37 q 422 16 422 -3 q 408 -2 386 -2 q 363 -1 336 0 q 310 0 283 0 l 176 0 q 148 0 121 0 q 94 -1 70 -2 q 47 -2 30 -3 q 30 24 32 42 q 33 61 37 75 q 57 76 70 81 q 83 86 90 98 q 98 110 101 131 q 104 152 104 187 l 104 491 q 104 525 102 545 q 99 565 92 576 q 86 588 73 593 q 60 598 39 601 q 35 616 32 636 q 30 655 30 679 q 52 678 86 678 q 120 677 158 676 q 195 676 231 676 l 392 676 q 435 676 468 676 q 500 677 525 678 q 550 678 571 679 z"},"`":{"x_min":0,"x_max":266,"ha":266,"o":"m 205 551 q 186 542 162 538 q 138 533 103 533 q 75 572 46 608 q 17 644 -28 685 q 8 700 50 708 q 92 717 136 717 q 147 680 166 634 q 185 589 205 551 z"},"k":{"x_min":0,"x_max":662,"ha":662,"o":"m 94 539 q 94 574 80 589 q 65 604 20 609 q 20 628 22 648 q 25 668 33 684 q 70 684 104 687 q 138 690 166 694 q 194 699 216 705 q 237 711 249 717 q 266 709 275 694 q 284 679 284 653 l 284 264 l 350 322 q 373 342 380 351 q 386 360 386 366 q 386 374 381 378 q 376 381 360 383 q 352 403 350 422 q 347 440 347 460 q 356 460 374 460 q 393 459 416 458 q 439 458 465 458 l 517 458 q 545 458 568 458 q 591 459 611 460 q 611 437 608 420 q 606 402 599 383 q 577 381 560 378 q 544 375 529 368 q 514 361 500 350 q 486 340 468 323 l 431 289 q 464 259 492 229 q 538 178 579 120 q 589 106 596 98 q 603 89 610 84 q 616 80 624 78 q 633 76 647 75 q 647 57 644 37 q 641 17 633 0 q 614 0 588 0 q 562 -1 536 -2 q 509 -3 484 -4 q 460 -6 444 -9 q 431 12 410 41 q 389 70 364 103 q 338 136 309 171 q 296 187 284 202 l 284 162 q 284 114 293 96 q 302 78 329 75 q 334 61 336 42 q 337 22 337 -3 q 328 -2 316 -2 q 303 -1 280 0 q 257 0 231 0 l 137 0 q 111 0 88 0 q 65 -1 47 -2 q 29 -2 20 -3 q 20 22 22 42 q 24 61 29 75 q 49 76 62 80 q 74 85 82 94 q 89 104 92 120 q 94 137 94 162 z"},"u":{"x_min":0,"x_max":663,"ha":663,"o":"m 392 275 q 392 299 390 316 q 387 332 379 342 q 371 352 357 357 q 343 362 321 364 q 321 383 324 403 q 326 423 334 439 q 409 439 466 447 q 524 455 548 467 q 565 459 574 444 q 582 429 582 403 l 582 196 q 582 166 584 148 q 586 131 593 121 q 600 111 613 107 q 626 103 648 101 q 648 81 646 62 q 643 43 635 26 q 575 24 534 16 q 493 7 453 -9 q 433 5 424 24 q 416 43 416 66 q 416 74 417 83 q 418 87 419 91 q 404 57 377 36 q 352 16 318 4 q 285 -7 240 -7 q 200 -7 170 2 q 139 12 118 34 q 98 55 88 91 q 77 127 77 181 l 77 270 q 77 294 75 310 q 73 327 66 337 q 60 347 48 352 q 36 357 15 359 q 15 378 18 398 q 20 418 28 434 q 103 434 156 444 q 209 455 233 467 q 250 459 258 444 q 267 429 267 403 l 267 207 q 267 172 270 150 q 273 128 278 116 q 284 104 293 100 q 302 96 314 96 q 327 96 341 105 q 355 114 366 132 q 378 151 385 179 q 392 207 392 246 z"},"]":{"x_min":0,"x_max":337,"ha":337,"o":"m 273 -269 q 237 -268 209 -268 q 181 -267 153 -267 q 130 -267 104 -268 q 77 -268 44 -269 q 44 -245 46 -226 q 47 -207 55 -184 q 84 -183 102 -178 q 120 -174 130 -164 q 139 -155 142 -138 q 146 -122 146 -96 l 146 575 q 146 599 142 614 q 139 630 128 639 q 117 648 97 652 q 77 656 44 659 q 44 682 46 702 q 47 723 56 742 q 90 741 118 741 l 222 741 q 246 741 273 742 z"},"U":{"x_min":0,"x_max":687,"ha":687,"o":"m 596 277 q 596 190 584 134 q 571 79 536 44 q 505 15 461 3 q 417 -9 359 -9 q 284 -9 233 5 q 182 19 151 49 q 120 79 107 126 q 94 173 94 239 l 94 486 q 94 521 91 542 q 88 563 80 575 q 73 587 60 592 q 48 598 28 601 q 20 635 20 679 q 40 677 78 676 q 115 676 156 676 l 206 676 q 237 676 268 676 q 299 677 326 678 q 352 678 364 679 q 364 655 363 636 q 362 618 358 601 q 338 598 326 592 q 313 587 306 575 q 299 563 296 542 q 294 520 294 486 l 294 256 q 294 162 322 117 q 349 72 406 72 q 429 72 452 82 q 476 92 492 115 q 505 134 512 172 q 520 210 520 287 l 520 467 q 520 504 516 528 q 513 553 506 568 q 498 583 485 590 q 472 597 454 601 q 448 641 448 679 q 458 678 472 678 q 487 677 503 676 q 519 676 534 676 l 560 676 q 589 676 618 676 q 648 677 667 679 q 667 657 666 638 q 664 618 659 601 q 639 598 627 592 q 615 585 608 570 q 601 556 598 533 q 596 510 596 476 z"},"o":{"x_min":0,"x_max":608,"ha":608,"o":"m 220 258 q 220 219 226 184 q 232 150 244 124 q 256 98 274 83 q 293 68 317 68 q 351 68 370 108 q 388 147 388 204 q 388 253 380 289 q 372 325 358 348 q 345 372 328 384 q 310 395 292 395 q 274 395 260 384 q 247 373 238 354 q 229 336 224 311 q 220 286 220 258 z m 30 220 q 30 283 52 330 q 73 376 110 406 q 148 437 198 452 q 249 467 307 467 q 376 467 427 450 q 478 433 512 402 q 545 371 562 329 q 578 287 578 237 q 578 119 504 55 q 429 -9 298 -9 q 163 -9 96 52 q 30 114 30 220 z"},"N":{"x_min":0,"x_max":727,"ha":727,"o":"m 459 679 q 469 678 486 678 q 503 677 522 676 q 541 676 559 676 l 590 676 q 616 676 647 676 q 678 677 696 679 q 696 660 696 640 q 695 620 689 601 q 669 598 657 592 q 645 586 638 571 q 631 556 628 529 q 626 502 626 458 l 626 0 q 606 -6 584 -8 q 563 -9 535 -9 l 194 452 l 194 218 q 194 175 197 148 q 200 122 209 106 q 218 91 234 84 q 249 78 273 75 q 278 58 279 38 q 280 17 280 -3 q 269 -2 254 -2 q 239 -1 222 0 q 205 0 188 0 l 159 0 q 146 0 128 0 q 109 1 90 1 l 55 1 q 39 1 30 0 q 30 24 32 41 q 33 58 38 75 q 61 78 76 84 q 92 91 102 106 q 111 122 115 148 q 119 175 119 218 l 119 554 l 105 573 q 97 587 84 592 q 70 598 38 601 q 33 618 32 637 q 30 656 30 679 q 40 678 57 678 q 74 677 94 676 q 113 676 132 676 l 190 676 q 206 676 222 676 q 237 677 252 678 q 266 678 276 679 l 551 300 l 551 458 q 551 501 548 528 q 545 554 536 570 q 526 585 510 592 q 493 598 466 601 q 461 618 460 640 q 459 662 459 679 z"},"+":{"x_min":0,"x_max":578,"ha":578,"o":"m 243 218 l 205 218 q 175 218 148 218 q 122 217 97 216 q 72 216 43 216 q 43 242 44 262 q 46 281 56 307 l 243 307 l 243 366 q 243 393 242 423 q 242 453 242 492 q 262 500 280 502 q 299 505 332 505 l 332 307 l 534 307 q 534 281 532 260 q 531 239 521 217 q 482 217 452 218 q 421 218 393 218 l 332 218 l 332 16 q 320 8 293 6 q 266 3 241 3 q 242 31 242 58 q 243 84 243 113 z"},"G":{"x_min":0,"x_max":689,"ha":689,"o":"m 461 181 q 461 203 458 217 q 455 231 448 240 q 440 248 426 252 q 412 255 391 256 q 385 287 385 333 q 414 331 452 330 q 489 330 522 330 l 592 330 q 632 330 664 332 q 664 312 663 293 q 662 274 658 256 q 632 254 626 242 q 621 230 621 197 l 621 173 q 621 153 622 139 q 623 125 625 114 q 627 102 630 92 q 633 81 638 69 q 592 35 526 13 q 460 -9 384 -9 q 303 -9 238 16 q 174 42 129 88 q 84 135 60 200 q 35 265 35 343 q 35 428 64 492 q 92 557 141 600 q 190 642 254 664 q 317 685 388 685 q 453 685 514 669 q 575 653 619 633 q 613 598 610 559 q 608 520 608 478 q 586 467 559 466 q 532 464 509 464 q 505 543 472 575 q 440 607 382 607 q 342 607 314 586 q 287 566 270 532 q 253 499 246 456 q 238 413 238 367 q 238 302 249 248 q 260 193 281 154 q 302 115 332 93 q 361 71 397 71 q 410 71 417 72 q 424 73 430 75 q 444 80 452 94 q 461 108 461 147 z"},"q":{"x_min":0,"x_max":647,"ha":647,"o":"m 275 -168 q 309 -166 331 -160 q 353 -153 366 -139 q 379 -125 384 -102 q 388 -78 388 -41 l 388 -20 q 388 16 391 44 q 393 63 398 84 q 380 54 359 37 q 336 18 302 8 q 268 -2 226 -2 q 135 -2 82 52 q 30 105 30 200 q 30 262 52 312 q 73 361 112 396 q 151 430 206 448 q 260 467 325 467 q 413 467 484 448 q 555 428 600 393 q 594 376 590 361 q 585 346 582 327 q 580 308 579 284 q 578 259 578 225 l 578 -35 q 578 -76 580 -101 q 582 -126 588 -140 q 595 -154 607 -160 q 619 -165 639 -168 q 644 -187 646 -205 q 647 -223 647 -245 q 631 -244 609 -244 q 587 -243 562 -242 q 537 -242 511 -242 l 405 -242 q 376 -242 350 -242 q 323 -243 301 -244 q 279 -244 266 -245 q 266 -223 268 -204 q 269 -186 275 -168 z m 380 166 q 388 195 388 237 l 388 360 q 380 376 364 386 q 348 395 325 395 q 304 395 285 386 q 266 376 252 355 q 238 334 230 300 q 221 267 221 219 q 221 144 241 115 q 261 86 299 86 q 315 86 331 94 q 347 102 360 120 q 372 138 380 166 z"},"d":{"x_min":0,"x_max":665,"ha":665,"o":"m 325 467 q 343 467 360 465 q 373 463 389 460 l 389 539 q 389 574 374 589 q 360 604 315 609 q 315 628 318 648 q 320 668 328 684 q 365 684 399 687 q 433 690 461 694 q 489 699 510 705 q 532 711 544 717 q 561 709 570 694 q 579 679 579 653 l 579 181 q 579 159 582 144 q 585 130 592 121 q 600 112 614 108 q 628 103 650 101 q 650 81 648 62 q 645 43 637 26 q 577 24 522 16 q 466 7 426 -9 q 406 5 397 24 q 391 38 389 55 q 376 40 363 30 q 344 16 310 4 q 277 -9 235 -9 q 192 -9 154 2 q 117 14 90 38 q 62 63 46 102 q 30 140 30 193 q 30 255 51 306 q 72 356 111 392 q 150 428 204 448 q 259 467 325 467 z m 381 169 q 389 198 389 240 l 389 361 q 377 376 365 384 q 349 396 326 396 q 309 396 290 390 q 272 383 256 364 q 241 345 231 311 q 221 277 221 222 q 221 198 224 174 q 228 150 236 132 q 245 113 260 101 q 275 89 299 89 q 315 89 332 97 q 348 105 360 122 q 373 140 381 169 z"},"1":{"x_min":0,"x_max":414,"ha":414,"o":"m 302 189 q 302 152 304 130 q 307 108 314 96 q 322 84 336 80 q 349 76 371 75 q 376 57 378 38 q 379 18 379 -3 q 364 -2 339 -2 q 314 -1 288 0 q 261 0 238 0 l 169 0 q 146 0 120 0 q 95 -1 72 -2 q 48 -2 35 -3 q 35 19 37 40 q 39 61 43 75 q 65 78 79 83 q 93 88 100 100 q 107 111 110 132 q 112 152 112 187 l 112 318 q 112 352 109 372 q 106 393 98 404 q 91 416 78 420 q 64 424 43 425 q 38 443 36 462 q 35 480 35 503 q 47 502 71 502 q 95 501 121 500 q 147 500 171 500 l 247 500 q 271 500 296 500 q 322 501 344 502 q 367 502 379 503 q 379 481 378 462 q 376 443 371 425 q 350 424 336 420 q 323 416 316 404 q 308 393 305 372 q 302 352 302 318 z"},"5":{"x_min":0,"x_max":481,"ha":481,"o":"m 101 505 q 126 503 147 502 q 168 502 190 501 q 213 500 241 500 l 308 500 q 331 500 344 514 q 356 529 356 555 q 374 561 398 562 q 422 563 442 563 q 437 520 436 470 q 435 420 435 373 q 424 343 384 343 q 303 343 244 342 q 185 342 145 339 l 134 286 q 227 272 289 251 q 351 230 388 200 q 425 170 440 132 q 456 93 456 45 q 456 -12 431 -53 q 406 -94 365 -120 q 324 -146 272 -158 q 220 -171 166 -171 q 112 -171 81 -165 q 50 -159 30 -148 q 30 -127 34 -110 q 39 -92 50 -78 q 59 -83 77 -86 q 95 -90 133 -90 q 191 -90 228 -62 q 264 -35 264 13 q 264 34 256 52 q 248 69 226 84 q 205 100 168 114 q 130 127 71 138 q 57 154 50 170 q 42 186 39 206 z"}}}
